<?xml version="1.0" encoding="utf-8"?>
<!-- Generator: Adobe Illustrator 24.1.2, SVG Export Plug-In . SVG Version: 6.00 Build 0)  -->
<svg version="1.1" id="bfc59778-adb9-4ded-81d5-12977ec092f3"
	 xmlns="http://www.w3.org/2000/svg" xmlns:xlink="http://www.w3.org/1999/xlink" x="0px" y="0px" viewBox="0 0 996.5 828.2"
	 style="enable-background:new 0 0 996.5 828.2;" xml:space="preserve">
<style type="text/css">
	.st0{opacity:0.1;fill:#6A53B9;enable-background:new    ;}
	.st1{opacity:0.1;fill:#7159C1;enable-background:new    ;}
	.st2{opacity:0.1;fill:#5F49AC;enable-background:new    ;}
	.st3{fill:#FFFFFF;}
	.st4{fill:#3A260F;}
	.st5{fill:#B2B2B2;}
	.st6{fill:#E0E0E0;}
	.st7{fill:#292929;}
	.st8{fill:#D8D8D8;}
	.st9{fill:#9A9A9A;}
	.st10{fill:#9994A6;}
	.st11{fill:#938FA2;}
	.st12{fill:#7058BF;}
	.st13{fill:#565656;}
	.st14{fill:#6A53B8;}
	.st15{fill:#ACACAC;}
	.st16{fill:#959595;}
	.st17{fill:#A1C9E2;}
	.st18{fill:#A2C9E2;}
	.st19{fill:#F6AA7E;}
	.st20{fill:#F8AB7F;}
	.st21{fill:#7159C0;}
	.st22{fill:#FAC29C;}
	.st23{fill:#FCFCFC;}
	.st24{fill:#F9F9F9;}
	.st25{fill:#644EB0;}
	.st26{fill:#747474;}
	.st27{fill:#737373;}
	.st28{fill:#727272;}
	.st29{fill:#787878;}
	.st30{fill:#6B55B5;}
	.st31{fill:#6B55B4;}
	.st32{fill:#6954B1;}
	.st33{fill:#6A54B3;}
	.st34{fill:#6953B0;}
	.st35{fill:#6954B0;}
	.st36{fill:#6B54B4;}
	.st37{fill:#6C55B6;}
	.st38{fill:#6A54B2;}
	.st39{fill:#6B6B6B;}
	.st40{fill:#717171;}
	.st41{fill:#6D6D6D;}
	.st42{fill:#A2CAE2;}
	.st43{fill:#A9CDE4;}
	.st44{fill:#A3CAE2;}
	.st45{fill:#A4CAE3;}
	.st46{fill:#A3CAE3;}
	.st47{fill:#A5CBE3;}
	.st48{fill:#ACCFE5;}
	.st49{fill:#A8CDE4;}
	.st50{fill:#A7CCE4;}
	.st51{font-family:'BerlinSansFBDemi-Bold';}
	.st52{font-size:21.0332px;}
</style>
<path class="st0" d="M991.6,282.4h-91.9v111.5h85.2c0.2,1.1,0.4,2.3,0.7,3.4h-85.9v89.9l0.4-0.1c2.4-0.9,4.8-1.8,7.2-2.7l1.5-0.6
	c2.5-1,4.9-2.1,7.2-3.2c0.8-0.4,1.7-0.8,2.5-1.2c13.2-6.5,25.4-14.9,36.2-25c0.3-0.3,0.6-0.5,0.9-0.8c1.5-1.4,2.9-2.9,4.3-4.3
	l1.5-1.6c1.7-1.8,3.2-3.6,4.8-5.5l0.7-0.8c6.2-7.6,11.5-16,15.6-25c0.1-0.3,0.2-0.5,0.4-0.8c1.3-2.8,2.4-5.7,3.4-8.6
	c0.4-1.2,0.8-2.5,1.2-3.7c0.1-0.4,0.2-0.7,0.3-1.1c5.1-17.9,5.7-36.4,5.7-54.9c0-2.1,0-4.3,0-6.5c0-7.5-0.1-15-0.3-22.5
	c0-1.9-0.1-3.9-0.1-5.8c-0.1-5-0.3-9.9-0.5-14.8c-0.1-1.4-0.1-2.8-0.2-4.1c0-0.8-0.1-1.6-0.1-2.4C992,288.1,991.8,285.3,991.6,282.4
	z"/>
<path class="st1" d="M899.6,158.4h50.4c-8.3-11.5-17.2-22.5-26.8-32.8c-7.5-8.2-15.4-16.2-23.6-23.8L899.6,158.4z"/>
<path class="st1" d="M899.6,161.8V279h91.6c0-0.3-0.1-0.7-0.1-1c-0.1-0.9-0.2-1.8-0.3-2.8s-0.2-2.2-0.3-3.3s-0.2-2.4-0.4-3.5
	s-0.3-2.4-0.4-3.5s-0.3-2.3-0.4-3.5s-0.3-2.3-0.5-3.5c-0.1-1-0.3-1.9-0.4-2.9c-0.2-1.4-0.4-2.7-0.7-4.1c0-0.2-0.1-0.4-0.1-0.6
	c-1.7-9.9-3.9-19.8-6.7-29.4c-3-10.2-6.8-20.2-11.4-29.9c-4.9-10.2-10.7-20-17.1-29.3L899.6,161.8z"/>
<path class="st1" d="M681.3,282.4v111.5h196.4V282.4H681.3z M681.3,397.3v75.5c22.9-7.3,49-4.4,72.7,1.6c18.3,4.7,36.2,11,54.5,15.6
	c8.2,2.1,16.5,3.7,24.9,4.7l2.1,0.2c1,0.1,2,0.2,3,0.3l3,0.2h0.3h1.3c0.2,0,0.3,0,0.5,0l1.6,0.1h0c0.8,0,1.5,0,2.3,0.1h1
	c0.8,0,1.5,0,2.3,0h1.7h1.4c0.6,0,1.2,0,1.8-0.1c0.9,0,1.9-0.1,2.8-0.2l0,0l1.8-0.1l2.2-0.2c1.5-0.1,3-0.3,4.5-0.5
	c0.6-0.1,1.2-0.1,1.8-0.2l0.9-0.1c1.5-0.2,3-0.4,4.5-0.7c1.1-0.2,2.2-0.4,3.3-0.6v-95.6H681.3z M827.4,158.3v3.4H681.3V279h196.4
	V161.8h-9.8v-3.4h9.8V82.6c-38.2-30.8-82.8-54.9-132.6-66c-20.9-4.6-42.3-6.9-63.8-6.7v148.4L827.4,158.3z M378.4,157.7l0.7,0.7
	h280.3V11c-49.9,4.2-98.6,20.9-137.8,48.7c-18.8,13.3-35.8,29.1-56.9,39.4c-11.1,5.5-23.2,8.6-35.6,9.2L378.4,157.7z M376.4,97.2
	v33.4l27.1-26.4C393.5,100.7,385.5,98.3,376.4,97.2L376.4,97.2z M375.5,516.8h0.9v73.1c10.2-0.8,20.4-1.8,30.5-3.1
	c45.3-5.8,89.8-17.4,132.2-34.3l0,0c4.6-1.8,9.1-3.7,13.6-5.7c3-1.3,6-2.6,8.9-4c4.4-2,8.8-4.1,13.2-6.3c19.4-9.5,38-20.4,55.9-32.5
	c1.1-0.8,2.2-1.5,3.3-2.3c2.2-1.5,4.4-3.1,6.6-4.6c1.1-0.8,2.2-1.6,3.3-2.4l2.2-1.7c2.2-1.7,4.5-3.3,6.7-5l0,0
	c2.1-1.5,4.2-3,6.3-4.4v-86.4H434.1c0.2-0.5,0.3-1,0.5-1.5c-0.2,0.5-0.3,1-0.5,1.5h-57.7v119.5L375.5,516.8z M376.4,161.8V279h282.9
	V161.8L376.4,161.8z M376.4,282.4v111.5h282.9V282.4L376.4,282.4z M319.9,100.7l34.6,33.7V97.1C342.9,97.8,331.3,99,319.9,100.7z
	 M79.2,282.4v111.5h275.2V282.4H79.2z M145.8,557.7c41.7,15.9,85.3,26.2,129.7,30.8h0.2c8.4,0.9,16.8,1.6,25.3,2.1h0.3l0,0
	c17.7,1,35.5,1.2,53.2,0.6V397.3H79.2l1,128.3 M3,393.9h54.3V282.4H35.8c-2.2,3.9-4.4,7.9-6.4,11.9c-1.1,2.1-2.2,4.3-3.2,6.5
	C12,330.1,3.1,362.3,3,393.9z M3,397.3c0.4,22.6,5.5,44.9,16.7,65.4c9.3,17,22.2,32,37.5,45V397.3H3z M37.8,279h19.5v-29
	C50.2,259.3,43.7,269,37.8,279L37.8,279z M159.7,158.4H348l0.7-0.7l-1-1l0,0l-52.9-51.6c-15.7,3.3-31.2,7.4-46.5,12.4
	c-1.4,0.5-2.9,1-4.3,1.4C214.5,129,186.2,142.2,159.7,158.4z M79.2,223.8V279h241.4l0,0h0h33.8V165l-3.9-3.1H154.2
	C126.6,179.2,101.4,200,79.2,223.8z"/>
<path class="st0" d="M899.6,220.9V279h91.6c0-0.3-0.1-0.7-0.1-1c-0.1-0.9-0.2-1.8-0.3-2.8s-0.2-2.2-0.3-3.3s-0.2-2.4-0.4-3.5
	s-0.3-2.4-0.4-3.5s-0.3-2.3-0.4-3.5s-0.3-2.3-0.5-3.5c-0.1-1-0.3-1.9-0.4-2.9c-0.2-1.4-0.4-2.7-0.7-4.1c0-0.2-0.1-0.4-0.1-0.6
	c-1.7-9.9-3.9-19.8-6.7-29.4L899.6,220.9z"/>
<path class="st1" d="M991.6,282.4h-91.9v111.5h85.2c0.2,1.1,0.4,2.3,0.7,3.4h-85.9v89.9l0.4-0.1c2.4-0.9,4.8-1.8,7.2-2.7l1.5-0.6
	c2.5-1,4.9-2.1,7.2-3.2c0.8-0.4,1.7-0.8,2.5-1.2c13.2-6.5,25.4-14.9,36.2-25c0.3-0.3,0.6-0.5,0.9-0.8c1.5-1.4,2.9-2.9,4.3-4.3
	l1.5-1.6c1.7-1.8,3.2-3.6,4.8-5.5l0.7-0.8c6.2-7.6,11.5-16,15.6-25c0.1-0.3,0.2-0.5,0.4-0.8c1.3-2.8,2.4-5.7,3.4-8.6
	c0.4-1.2,0.8-2.5,1.2-3.7c0.1-0.4,0.2-0.7,0.3-1.1c5.1-17.9,5.7-36.4,5.7-54.9c0-2.1,0-4.3,0-6.5c0-7.5-0.1-15-0.3-22.5
	c0-1.9-0.1-3.9-0.1-5.8c-0.1-5-0.3-9.9-0.5-14.8c-0.1-1.4-0.1-2.8-0.2-4.1c0-0.8-0.1-1.6-0.1-2.4C992,288.1,991.8,285.3,991.6,282.4
	z"/>
<polygon class="st0" points="808.6,178.6 808.6,279 877.7,279 877.7,178.6 867.8,178.6 867.8,144.6 827.4,144.6 827.4,178.6 "/>
<rect x="808.6" y="282.5" class="st0" width="69.1" height="111.4"/>
<path class="st0" d="M877.7,397.3h-69.1V490c8.2,2.1,16.5,3.7,24.9,4.7l2.1,0.2c1,0.1,2,0.2,3,0.3l3,0.2c0.1,0,0.2,0,0.3,0
	c0.4,0,0.9,0,1.3,0.1h0.5c0.5,0,1.1,0,1.6,0.1l0,0c0.8,0,1.5,0,2.3,0.1h1c0.8,0,1.5,0,2.3,0h1.7h1.4l1.8-0.1c0.9,0,1.9-0.1,2.8-0.2
	l0,0l1.7-0.1l2.2-0.2c1.5-0.1,3-0.3,4.5-0.5l1.8-0.2l0.9-0.1c1.5-0.2,3-0.4,4.5-0.7c1.1-0.2,2.2-0.4,3.3-0.6L877.7,397.3z"/>
<rect x="376.4" y="166.7" class="st0" width="57" height="112.3"/>
<polygon class="st0" points="376.4,282.5 376.4,393.9 659.3,393.9 659.3,345.8 508.6,345.8 508.6,374.2 433.4,374.2 433.4,282.5 "/>
<path class="st0" d="M375.5,516.8h0.9V590c10.2-0.8,20.4-1.8,30.5-3.1c45.4-5.9,89.8-17.4,132.3-34.3c12.2-4.9,24.1-10.2,35.7-15.9
	c19.4-9.5,38-20.4,55.9-32.5c4.5-3,8.8-6.1,13.2-9.3c3-2.2,6-4.5,9-6.7c2.1-1.5,4.2-3,6.3-4.4v-86.4H434.2c0.2-0.5,0.3-1,0.5-1.5
	c-0.2,0.5-0.3,1-0.5,1.5h-57.7v119.5L375.5,516.8z"/>
<path class="st0" d="M227.7,158.4h37.1v-10.3h-16.6v-30.6c-1.4,0.5-2.9,1-4.3,1.4v29.1h-16.2V158.4z"/>
<path class="st0" d="M138.2,279h182.4h-0.1h0.1h33.8V166.7h-9.6v83h-43.8v-49.1h-36.2v-38.8h-37.1v38.8h-36.2v49.1h-53.3V279z"/>
<path class="st0" d="M138.2,282.4v111.5h216.2V282.4H138.2z M145.8,557.7c41.7,15.9,85.3,26.2,129.7,30.8h0.2
	c8.4,0.9,16.8,1.6,25.3,2.1h0.3l0,0c17.7,1,35.5,1.2,53.2,0.6V397.3H138.2v39.5h-59l0.3,88.2"/>
<path class="st0" d="M53.5,397.3H3c0.4,22.6,5.6,44.9,16.7,65.4c9.3,17.1,22.2,32,37.5,45v-70.9h-3.8L53.5,397.3z"/>
<path class="st0" d="M3,393.9h50.5v-93.1H26.2C12,330.1,3.1,362.3,3,393.9z"/>
<rect x="376.4" y="197.9" class="st2" width="30.5" height="35.2"/>
<rect x="376.4" y="270.9" class="st2" width="30.5" height="8.1"/>
<rect x="376.4" y="282.5" class="st2" width="30.5" height="23.6"/>
<rect x="376.4" y="343.9" class="st2" width="30.5" height="35.2"/>
<rect x="376.4" y="416.8" class="st2" width="30.5" height="35.2"/>
<path class="st2" d="M376.4,516.8h-0.9H376.4v8.2h30.5v-35.2h-30.5V516.8z"/>
<path class="st2" d="M376.4,562.7v27.2c10.2-0.8,20.4-1.8,30.5-3.1v-24L376.4,562.7z"/>
<rect x="528.5" y="391.3" class="st2" width="130.9" height="2.6"/>
<rect x="528.5" y="397.3" class="st2" width="130.9" height="9.9"/>
<rect x="528.5" y="439.7" class="st2" width="130.9" height="15.9"/>
<path class="st2" d="M528.5,488.1v15.9h102.4c4.4-3,8.8-6.1,13.2-9.3c3-2.2,6-4.5,9-6.6L528.5,488.1z"/>
<path class="st2" d="M528.5,536.6v15.9h10.8c12.2-4.9,24.1-10.2,35.7-15.9H528.5z"/>
<rect x="275.5" y="293.3" class="st2" width="25.8" height="22.9"/>
<rect x="833.4" y="186.5" class="st2" width="25.8" height="22.9"/>
<rect x="833.4" y="239.7" class="st2" width="25.8" height="22.9"/>
<rect x="833.4" y="292.9" class="st2" width="25.8" height="22.9"/>
<rect x="833.4" y="346.1" class="st2" width="25.8" height="22.9"/>
<rect x="833.4" y="399.4" class="st2" width="25.8" height="22.9"/>
<rect x="833.4" y="452.6" class="st2" width="25.8" height="22.9"/>
<rect x="177.1" y="293.3" class="st2" width="25.8" height="22.9"/>
<rect x="275.5" y="349.8" class="st2" width="25.8" height="22.9"/>
<rect x="177.1" y="349.8" class="st2" width="25.8" height="22.9"/>
<rect x="275.5" y="406.3" class="st2" width="25.8" height="22.9"/>
<rect x="177.1" y="406.3" class="st2" width="25.8" height="22.9"/>
<rect x="275.5" y="462.8" class="st2" width="25.8" height="22.9"/>
<rect x="177.1" y="462.8" class="st2" width="25.8" height="22.9"/>
<rect x="275.5" y="519.3" class="st2" width="25.8" height="22.9"/>
<rect x="177.1" y="519.3" class="st2" width="25.8" height="22.9"/>
<polygon class="st2" points="301.3,590.6 301.3,575.8 275.5,575.8 275.5,588.5 "/>
<path class="st2" d="M899.6,250.4v13.1h88.2v-13.1H899.6z M979,251.2h7.2v11.5H979L979,251.2z M970.3,251.2h7.2v11.5h-7.3
	L970.3,251.2z M961.5,251.2h7.2v11.5h-7.2V251.2z M952.7,251.2h7.2v11.5h-7.2V251.2z M943.9,251.2h7.3v11.5H944L943.9,251.2z
	 M935.2,251.2h7.2v11.5h-7.2V251.2z M926.4,251.2h7.2v11.5h-7.2V251.2z M917.6,251.2h7.2v11.5h-7.2V251.2z M908.8,251.2h7.2v11.5
	h-7.2V251.2z M900.1,251.2h7.2v11.5h-7.2V251.2z"/>
<path class="st2" d="M899.6,288.5v13.1h88.2v-13.1H899.6z M979,289.3h7.2v11.5H979L979,289.3z M970.3,289.3h7.2v11.5h-7.3
	L970.3,289.3z M961.5,289.3h7.2v11.5h-7.2V289.3z M952.7,289.3h7.2v11.5h-7.2V289.3z M943.9,289.3h7.3v11.5H944L943.9,289.3z
	 M935.2,289.3h7.2v11.5h-7.2V289.3z M926.4,289.3h7.2v11.5h-7.2V289.3z M917.6,289.3h7.2v11.5h-7.2V289.3z M908.8,289.3h7.2v11.5
	h-7.2V289.3z M900.1,289.3h7.2v11.5h-7.2V289.3z"/>
<path class="st2" d="M899.6,326.7v13.1h88.2v-13.1H899.6z M979,327.5h7.2v11.5H979L979,327.5z M970.3,327.5h7.2v11.5h-7.3
	L970.3,327.5z M961.5,327.5h7.2v11.5h-7.2V327.5z M952.7,327.5h7.2v11.5h-7.2V327.5z M943.9,327.5h7.3v11.5H944L943.9,327.5z
	 M935.2,327.5h7.2v11.5h-7.2V327.5z M926.4,327.5h7.2v11.5h-7.2V327.5z M917.6,327.5h7.2v11.5h-7.2V327.5z M908.8,327.5h7.2v11.5
	h-7.2V327.5z M900.1,327.5h7.2v11.5h-7.2V327.5z"/>
<path class="st2" d="M899.6,364.8v13.1h88.2v-13.1H899.6z M979,365.6h7.2v11.5H979L979,365.6z M970.3,365.6h7.2v11.5h-7.3
	L970.3,365.6z M961.5,365.6h7.2v11.5h-7.2V365.6z M952.7,365.6h7.2v11.5h-7.2V365.6z M943.9,365.6h7.3v11.5H944L943.9,365.6z
	 M935.2,365.6h7.2v11.5h-7.2V365.6z M926.4,365.6h7.2v11.5h-7.2V365.6z M917.6,365.6h7.2v11.5h-7.2V365.6z M908.8,365.6h7.2v11.5
	h-7.2V365.6z M900.1,365.6h7.2v11.5h-7.2V365.6z"/>
<path class="st2" d="M899.6,403v13.1h82.9c0.1-0.3,0.2-0.5,0.3-0.8H979v-11.5h7.2v2.9c0.4-1.2,0.8-2.4,1.2-3.7L899.6,403z
	 M970.3,403.8h7.2v11.5h-7.3L970.3,403.8z M961.5,403.8h7.2v11.5h-7.2V403.8z M952.7,403.8h7.2v11.5h-7.2V403.8z M943.9,403.8h7.3
	v11.5H944L943.9,403.8z M935.2,403.8h7.2v11.5h-7.2V403.8z M926.4,403.8h7.2v11.5h-7.2V403.8z M917.6,403.8h7.2v11.5h-7.2V403.8z
	 M908.8,403.8h7.2v11.5h-7.2V403.8z M900.1,403.8h7.2v11.5h-7.2V403.8z"/>
<path class="st2" d="M899.6,441.1v13.1h55.1c0.3-0.3,0.6-0.6,0.9-0.8h-2.9v-11.4h7.2v7.1l1.6-1.6v-5.5h4.8c0.2-0.3,0.4-0.6,0.7-0.8
	L899.6,441.1z M943.9,441.9h7.3v11.5H944L943.9,441.9z M935.2,441.9h7.2v11.5h-7.2V441.9z M926.4,441.9h7.2v11.5h-7.2V441.9z
	 M917.6,441.9h7.2v11.5h-7.2V441.9z M908.8,441.9h7.2v11.5h-7.2V441.9z M900.1,441.9h7.2v11.5h-7.2V441.9z"/>
<path class="st2" d="M899.6,479.3v7.9c0.1,0,0.3-0.1,0.4-0.2v-7h7.2v4.3l1.5-0.6v-3.6h7.2v0.4c0.8-0.4,1.7-0.8,2.5-1.2L899.6,479.3z
	"/>
<path class="st2" d="M827.4,158.4v3.4h40.5v-3.4H827.4z"/>
<polygon class="st2" points="320.6,279 320.6,279 320.6,279 "/>
<polygon class="st2" points="375.5,516.8 376.4,516.8 376.4,516.8 "/>
<path class="st2" d="M434.1,397.3L434.1,397.3c0.2-0.5,0.3-1,0.5-1.5C434.4,396.3,434.3,396.8,434.1,397.3z"/>
<polygon class="st2" points="320.6,279 320.6,279 320.6,279 "/>
<polygon class="st2" points="375.5,516.8 376.4,516.8 376.4,516.8 "/>
<path class="st2" d="M434.1,397.3L434.1,397.3c0.2-0.5,0.3-1,0.5-1.5C434.4,396.3,434.3,396.8,434.1,397.3z"/>
<polygon class="st2" points="320.6,279 320.6,279 320.6,279 "/>
<polygon class="st2" points="375.5,516.8 376.4,516.8 376.4,516.8 "/>
<path class="st2" d="M434.1,397.3L434.1,397.3c0.2-0.5,0.3-1,0.5-1.5C434.4,396.3,434.3,396.8,434.1,397.3z"/>
<ellipse class="st3" cx="469.2" cy="400.6" rx="1.5" ry="3"/>
<path class="st4" d="M493.8,344.2c13.9-11.1,30.2-14.1,47.4-13.9c2.2,0,4.3,0,6.5,0c1.6,0.9,3.6,0,5.2,0.8c12.7,3.3,17,8.9,17,21.8
	c0,7.8,0,15.6,0,23.4c2.4,3.1,1.4,6.7,1.5,10.2c0.3,8.6,0.3,17.2,0,25.7c0.2,10.4,0.2,20.7,0,31.1c0.2,8.8,0,17.6-2.2,26.1
	c-2.2,8.7-5.3,17.1-12.1,23.4c-1.9,0.7-3.6,0.1-5.3-0.6c-25.8-10.9-51.6-11.6-77.6-0.7c-1.8,0.8-3.7,1.6-5.7,1.8
	c-4.2-0.1-5.8-3.6-7.5-6.4c-3.9-6.4-6.6-13.3-8-20.7c-0.5-1.8-0.3-3.7-0.6-5.6c-0.5-1.6-0.8-3.3-0.8-5c0-3.9,0-7.8-0.1-11.7
	c-0.3-10.4-0.3-20.8,0-31.1c0-8.4,0.4-16.7-0.2-25.1c-0.2-0.6-0.3-1.1-0.4-1.7c-0.4-3.5,0.4-6.8,1.6-10.1c0.2-3.2-0.3-6.4,0.3-9.5
	c1.4-12,9.4-19.3,23.3-21.3C481.9,344,487.9,345.5,493.8,344.2z"/>
<path class="st5" d="M974.9,618.2c2.1,5.9,0.5,11.9,0.9,17.9c-0.8,1.8-2.3,2.3-4.1,1.9c-3.1-0.7-6.3-0.4-9.4-0.4
	c-52,0-104.1-0.1-156.1,0c-7.1,2.1-14.3,0.9-21.4,0.9c-53.7-0.1-107.4,0.4-161.1,0.2c-3.1,0-6.3,0.4-9.3-1
	c-3.7-6.6-3.8-13.7-2.7-20.9c3.2-2.1,6.7-1.3,10.2-1c8.9,0.8,17.9,1.7,26.9,1.7c4.5,0,8.9-0.8,13.4-1.3c14.4,0.8,28.8,0.2,43.2,0.3
	c3,0,5.9,0.1,8.8,1c46.8,0,93.5,0.1,140.3-0.1c7.1,0,14.2-1.2,21.3-0.8c31.9,1.9,63.8,0.5,95.7,0.9
	C972.6,617.7,973.9,617.4,974.9,618.2z"/>
<path class="st5" d="M61,637.3c-0.7-0.7-1.5-1.4-2.2-2.2c0-4.3,0.2-8.7,0.1-13c-0.1-3,0.9-4.4,4-4.1c1.3,0.1,2.7,0,4,0
	c82,0,164,0,246,0c5.5-1.7,11.2-1.3,16.8-1.4c12.6-0.2,25.3,0.4,37.9-0.3c12.7,2.5,25.5,0.7,38.2-0.2c2.1-0.2,4.3-0.8,6.3,0.7
	c1.3,7.2,0.6,14.2-2.4,20.9c-1.8,1.1-3.8,1.1-5.8,1.1c-54.9,0-109.8,0-164.6,0c-0.7,0-1.3-0.1-2-0.2c-7.2,0.2-14.3,0.2-21.5,0
	c-5,0.4-10,0.2-15,0.2c-37.3,0-74.6-0.1-111.9,0.1C79.5,638.9,70.3,638.5,61,637.3z"/>
<path d="M452.9,376c-0.3,3.3-0.7,6.7-1,10c-2.6,2.5-6,1.8-9,1.8c-54.8,0.1-109.6,0-164.4,0c-18.5,0-37,0-55.5,0
	c-7,0-7.4,0.4-7.4,7.3c0,47,0,93.9,0,140.9c0,7.2,0.2,7.4,7.8,7.4c52.8,0,105.6,0,158.4,0c3.1,0,6.3-0.5,9.3,1
	c1.5,1.1,1.2,2.5,0,3.3c-5.7,4-10.4,9.6-17.8,10.8c-4.5,0.4-9,0.3-13.5,0.3c-49.2,0-98.4,0-147.7-0.1c-3.3,0-7.2,1.2-9.3-2.8
	c0.1-0.3,0.1-0.6-0.1-0.9c-0.7-1.8-0.3-3.6-0.3-5.4c0-46.1,0-92.3,0-138.4c0-1.8,0.4-3.7-0.4-5.4c0.1-8.3,0.5-16.7,0.1-25
	c-0.2-4,1.3-4.9,4.8-4.7c4.5,0.2,9,0,13.5,0c75.1,0,150.3,0,225.4,0c2,0,4-0.1,6-0.2C452.3,375.6,452.6,375.7,452.9,376z"/>
<path d="M569.9,386.1c0-3.3,0-6.6,0-9.9c82.1,0,164.1,0,246.2,0c5.7,0,6.4,0.8,6.5,6.7c0.1,8,0.1,16,0.2,23.9
	c-0.8,1.8-0.4,3.6-0.4,5.4c0,46.1,0,92.2,0,138.3c0,1.8,0.2,3.7-0.2,5.5c-0.9,1.9-2.7,2.3-4.5,2.6c-1.3,0.2-2.7,0.2-4,0.2
	c-50.5,0-101.1,0-151.6,0c-2.2,0-4.3-0.3-6.5-0.3c-7-1.9-12.2-7-17.8-11.2c-1.5-1.1-1.5-2.5,0.6-3.3c2.9-0.9,6-0.6,8.9-0.6
	c51,0,102,0,152.9,0c8.9,0,8.9,0,8.9-8.7c0-46.1,0-92.3,0-138.4c0-1.3-0.1-2.7-0.1-4c0-2.8-1.3-4.3-4.2-4.4c-2,0-4-0.1-6-0.1
	c-73.1,0-146.3,0-219.4,0C576.2,387.8,572.8,388.5,569.9,386.1z"/>
<path class="st6" d="M202.9,555.9c2,1.7,4.4,1.2,6.7,1.2c53.3,0,106.6,0,159.8,0c1.8,0,3.7,0.1,5.5,0.1c0.3,2.3-1.6,3-3,4.2
	c-2.8,2.3-5.9,4.2-8.9,6.2c-5.9,4.1-11.3,8.6-13.5,15.9c-0.4,1.3-1.2,2.4-2.4,3.1c-8.1,1.5-16.2,2.4-24.2-0.5
	c-32.8,0-65.5,0-98.3-0.2c-7.1,0-16,3.2-20.7-1.5c-4.9-4.9-1.2-13.9-1.7-21.1C202.2,560.8,201.7,558.3,202.9,555.9z"/>
<path class="st6" d="M654.1,557.3c10.6-0.1,21.3-0.2,31.9-0.2c43.1,0,86.1,0,129.2,0c2.3,0,4.7,0.4,6.7-1.1c0.5-0.2,0.7-0.1,0.8,0.5
	c0,7.5-0.3,15-0.1,22.4c0.1,4.9-1.5,7.6-6.8,7.2c-1.7,1.4-3.3,1.4-5,0c-26.7-0.1-53.4-0.1-80.1-0.2c-9,0-17.9,0.1-26.9,0.1
	c-4.4,2.9-9.3,1.2-14,1.6c-2.1,0.2-4.3,0.1-6.4-0.3c-2.2-0.5-3.3-2.2-3.8-4.2c-1.7-5.9-5.5-10.1-10.5-13.5
	c-4.1-2.9-8.3-5.5-12.2-8.6C655.7,560,653.8,559.5,654.1,557.3z"/>
<path class="st7" d="M859,617c-3-2.8-7.3-3.6-10.1-7.2c-3.1-4-4.8-8-5.2-12.8c-0.6-14.7-0.2-29.4-0.2-44.1c0-0.3,0.3-0.5,0.5-0.8
	c1.3-0.2,2.6-0.7,3.9-0.7c16.3,0,32.6-0.1,48.9,0c2.8,0,5.7-0.1,5.2,4.4c-0.4,3.5,2.6,2.4,4.2,2c3.9-0.8,7.6,0,11.1,1.5
	c5.5,2.4,7.9,7.9,6.9,13.9c-1.8,10.6-8.7,18.1-15.7,25.3c-4.4,4.5-9.5,8.2-13.7,12.9c-2.4,2.7-5.9,4.1-9.3,5.4
	C876.7,618.1,867.9,617.9,859,617z"/>
<path class="st8" d="M892.9,461.2c-1-1.6-2.1-3.2-3.1-4.8c-1.6-3.6-4.8-3.9-8.1-4.1c-1.5,0-3,0.1-4.5,0c-15.8-0.6-30.8,9-31.5,27.9
	c-1.5,2-1.4,4,0.1,6c0,4.7,2.1,8.9,3.9,13.1c5.2,12.1,15.6,17.8,27.2,22.1c1.1,1.3,1.7,2.7,2,4.2c0.6,1.2,0.8,2.6,0.5,3.8
	c0,0.5,0.1,1,0.1,1.5c0.2,0.3,0.5,0.5,0.8,0.7c0.4-0.7,1.1-1.3,1.8-1.6l-0.1-0.5c0-0.7,0.1-1.3,0.4-1.9c0.2-0.6,0.5-1.2,1-1.6
	c0,0,0.1-0.1,0.1-0.1c-0.1-0.9,0.1-1.8,0.4-2.6c0-0.3-0.1-0.6-0.1-0.9c0.2-3.7-2.3-5.5-5.1-7c-1.6-1.3-3.3-2.6-4.9-4
	c0-0.1-0.1-0.1-0.1-0.2c-0.3-0.3-0.6-0.6-0.8-0.9c-0.3-0.2-0.5-0.5-0.7-0.7c-0.1,0-0.1-0.1-0.1-0.1c-0.4-0.3-0.8-0.6-1.1-1
	c-0.3-0.2-0.6-0.5-0.8-0.8c-0.3-0.2-0.6-0.5-0.9-0.8c-0.6-0.4-1.1-0.9-1.5-1.5c0,0-0.1,0-0.1,0c-2.2-2.9-4.2-5.9-4-9.8
	c-0.8-2.9-0.6-5.8,0-8.6c0.6-6,2.2-7.6,7.1-7.5c2.7,3.4,6.4,2.4,9.9,2.1c0.4,0,0.7-0.1,1.1-0.1c3.4,1.1,5.4-0.6,6.9-3.3
	c1.4-2,2.9-3.9,4.3-5.9C895.9,468.4,896,464.8,892.9,461.2z"/>
<path class="st9" d="M323,586.1c8.3-0.9,16.6,0.7,24.9-0.8c0.9,0.6,1.3,1.6,1.2,2.6c-0.7,8.7,3.5,15.1,9.6,20.7
	c1.2,2.8,3.6,4.4,5.9,6.2c1.1,0.9,3.1,2.3-0.3,2.9c-14.3,0-28.5,0-42.8-0.1c-1.5,0-3.7,1.3-4.5-1.3c4.2-3.4,5.7-8,5.9-13.1
	C323.1,597.4,323,591.7,323,586.1z"/>
<path class="st9" d="M705.6,603.2c-0.1-0.4-0.2-0.7-0.3-1.1c-0.5-0.7-0.7-1.6-0.8-2.5c-0.1-0.3-0.1-0.7-0.1-1.1
	c0-0.1-0.1-0.1-0.1-0.2c0,0,0,0,0,0c-0.1-0.2-0.1-0.5-0.2-0.7c-0.2-0.7-0.2-1.4-0.2-2.2c0-3.1-0.1-6.2-0.1-9.3
	c-7.3-0.1-14.6-0.1-21.9-0.2c-0.6,0.4-1.1,0.9-1.1,1.6c-0.5,9-4.4,16.2-11.4,21.7c-1,2.4-3.2,3.7-4.8,5.5c-1.3,1.4-2,3,1.1,2.9
	c14.6-0.2,29.3,0.5,43.9-0.4c1-1.6,0.1-2.9-0.6-4.2C707.2,610,706.1,606.7,705.6,603.2z"/>
<path class="st10" d="M317,616.2c1.3,1.5,3.1,0.9,4.7,0.9c14.8,0,29.6,0,44.3,0c0.7-0.5,1.3-0.5,1.9,0.3c-1.1,1-2.5,0.8-3.8,0.8
	c-17.1,0-34.1,0-51.2-0.1C314.2,617.4,315.6,616.8,317,616.2z"/>
<path class="st11" d="M709.9,616.1c1,0.3,2,0.6,3,1c0.3,0,0.6,0,1,0c0,0.3,0.1,0.6,0.1,0.9c-16.3,0-32.5,0.1-48.8,0.1
	c-1.2,0-2.4,0.1-3.2-0.9c0.5-0.6,1.1-0.7,1.8-0.2c14.3,0,28.6,0.1,43,0.1C707.8,617.1,709,617.2,709.9,616.1z"/>
<path class="st12" d="M452.9,376l-0.5,0l-0.5-0.1c0.4-3.2-0.8-6.6,0.8-9.7C452.8,369.5,452.8,372.8,452.9,376z"/>
<path class="st12" d="M552.9,331c-1.8,0-3.6,0.3-5.2-0.8C549.4,330.3,551.3,329.6,552.9,331z"/>
<path class="st13" d="M409.5,637c0.7-6.7,1.4-13.3,2.2-20c-2.1-3.9,0.3-7.8-0.1-11.7c2.2-15.8,3.4-31.8,5.8-47.6
	c2.3-15.4,8.4-29,18.3-41c1-1.2,1.7-2.5,2.4-3.8c7.8-7.5,16.2-14.4,25.8-19.7c1.4-0.8,2.9-0.5,4.2-1.2c14.6-6,29.5-10.7,45.6-10.2
	c13.4,0.5,26.2,3.3,38.4,8.6c1.5,0.6,2.9,1.7,4.7,1.4c7,2.7,13,6.9,18.7,11.6c2,1.6,4,3.3,6.1,5c0.6,0.5,1.1,1.1,1.5,1.8
	c9.7,10,17,21.5,21.2,35c3.1,10.1,3.9,20.5,5,30.9c0.9,9.4,1.7,18.8,2.9,28.2c-0.4,4.2,2.1,8.4-0.1,12.6c0.6,6.7,1.3,13.4,1.9,20.1
	c3.6,4.9,2,10.9,3.1,16.3c0.7,3.3,0.7,6.9,1.1,10.3c1.9,21,4.3,42,6.3,63.1c2,21.4-3.5,40.9-15.4,58.6c-3.3,4.9-6.4,10.2-12.3,12.7
	c-4.2,2.4-8.5,0.2-12.7-0.3c-17.6-2-35-4.5-52.6-6.9c-1.7-2-1.5-4.4-1.5-6.7c0-42.8,0-85.6,0-128.3c0-2.2-0.1-4.3,1-6.3
	c2.3-2.7,5.8-2.2,8.8-2.8c3.6-0.7,5.2-2.5,5.3-6.1c0.1-9.1,0.1-18.3,0-27.4c0-3.6-2-5.5-5.3-6.2c-1.8-0.4-3.6-0.5-5.5-0.5
	c-16,0-31.9-0.1-47.9,0c-9.3,0-11.1,1.9-11.1,11.1c0,6.5,0,13,0,19.5c0.1,7.9,1.7,9.7,9.5,10.2c2.3,0.2,4.7-0.1,6.5,1.9
	c1.1,1.8,1.1,3.8,1.1,5.8c0,41.8,0,83.7,0,125.5c0,2.1,0.1,4.4-1.4,6.2c-25-1.1-50.1-0.1-75.1,1.1c-7-5.3-9.7-13.4-12.8-21
	c-6.8-16.6-7.5-33.9-4.4-51.5c0.5-2.6,0.6-5.3,0.9-7.9c2.5-21.6,4.9-43.1,7.5-64.7C407.5,640.8,407.7,638.6,409.5,637z"/>
<path class="st14" d="M596.9,798.1c10.2-10.7,18.2-22.7,22.5-37c4.2-13.7,5.2-27.5,2.9-41.7c-1.8-11.1-2.4-22.4-3.4-33.6
	c-0.7-7.2-1.3-14.5-2-21.7c1.8-2,4.3-2.5,6.7-3c34.9-7.6,69.9-15.2,105-22c5.4-1,10.8-1.6,16.3-1.5c11.8,0.1,23.6,0,35.4,0.1
	c1.7,0,3.7-0.7,5.1,1c1,1.8,1,3.9,1,5.9c0,55.3,0,110.5,0,165.8c0,2.3,0.2,4.7-1.5,6.7c-6.2-0.6-12.5-1.4-18.7-1.9
	c-19.1-1.3-38.2-3-57.3-4.9c-12.3-1.3-24.7-1.9-37.1-3.1c-15.3-1.5-30.5-3.3-45.8-4.9c-7.7-0.8-15.5-1.4-23.2-2.1
	C600.8,799.9,598.7,799.5,596.9,798.1z"/>
<path class="st14" d="M400.9,708.1c-0.7,7.1-1.4,14.1-2,21.2c-1.4,15,2,29.2,8,42.8c2.5,5.6,6,10.7,9.1,15.9
	c-18.3,1.4-36.6,2.1-54.9,3.8c-10.2,1-20.5,1.2-30.6,2.3c-13.3,1.5-26.6,2-39.9,3.7c-7.7,1-15.4,1.2-23.2,2.1
	c-10.2,1.1-20.4,1.5-30.6,2.2c-1.7-1.9-1.6-4.3-1.6-6.6c0-29.9,0-59.8,0-89.8c0-2,0-4,0.9-5.9c2.1-2.6,4.6-1.1,6.8-0.4
	c16.1,4.8,32.1,9.8,48.6,13.4c15,3.3,30,3.2,45.2,2.2c19.5-1.3,38.7-4.4,57.9-7.3C396.7,707.4,398.9,706.6,400.9,708.1z"/>
<path class="st15" d="M491.2,787c0-43.8-0.1-87.6-0.1-131.4c0-2.2-0.1-4.3-0.1-6.5c0.2-0.2,0.5-0.4,0.7-0.7c2.7-1.3,5.6-0.8,8.3-0.7
	c10.4,0.3,20.9-0.9,31.3,0.7c0.2,0.2,0.5,0.4,0.7,0.7c0,40.8-0.1,81.6-0.1,122.4c0,6.5,0,13-0.1,19.5
	C518.3,789.2,504.8,787.4,491.2,787z"/>
<path class="st16" d="M785.1,817c-0.1-19.3-0.1-38.6-0.1-58c-0.1-40.3-0.1-80.6-0.1-120.9c-0.3-0.2-0.4-0.4-0.3-0.6
	c0.1-0.2,0.2-0.3,0.3-0.3c7.1,0,14.1,0,21.2,0c0,0.3,0,0.6,0,0.9c0,30.2-0.1,60.3-0.1,90.5c0,29.8,0,59.6-0.1,89.5
	c-3,2.1-6.1,0-9-0.3C792.9,817.4,789,817.1,785.1,817z"/>
<path class="st16" d="M236.9,699.1c0,34.3-0.1,68.6-0.1,102.9c-6.9,1.4-13.9,1.7-20.9,2c-0.1-37.3-0.1-74.7-0.2-112
	c-1.3-2.2-1.5-4.7-1.5-7.2c0-13.7,0-27.3,0-41c0-2.3-0.2-4.7,1.5-6.6c7.1,0,14.1,0,21.2,0c1.6,1.7,1.6,3.9,1.6,6.1
	c0.1,16.6,0.1,33.1,0,49.7C238.6,695.2,238.5,697.4,236.9,699.1z"/>
<path class="st7" d="M468.1,492.3c-10.7,5.6-19.6,13.6-29.1,20.8c-2.2,4-6.4,5.7-9.8,8.2c-10.9,7.8-21.9,15.5-32.9,23.2
	c-1.2,0.9-2.3,2.6-4.3,1.4c-1.8-1.3-3.9-0.7-5.8-0.7c-55.3,0-110.6-0.1-165.9,0.1c-5.1,0-6.3-1.3-6.3-6.4
	c0.2-48.8,0.1-97.6,0.1-146.4c0-6.3,0-6.3,6.6-6.4c74.9,0,149.9,0,224.8,0c2.2,0,4.3-0.1,6.5-0.1c0,0,0.1,0.2,0.1,0.2
	c1,8.1,0.2,16.2,0.5,24.3c0.1,2.1-1.4,2.9-3,3.4c-7,2.2-10.7,7.4-10.8,14.4c-0.1,6.9,4.1,11.6,10.4,14.3c0.6,0.3,1.2,0.6,1.7,1
	c2.5,1.8,1.3,4.4,1.6,6.7c0.2,1.9-0.5,3.9,0.5,5.7c0.3,1.4,0.7,2.8,1,4.2c-0.7,2-0.7,3.9,0,5.9c2.3,6.3,3.9,12.9,7.4,18.7
	C463.1,487.7,464.3,491.2,468.1,492.3z"/>
<path class="st17" d="M569.9,386.1c78.6,0,157.2,0.1,235.8,0c4.2,0,5.5,0.7,5.5,5.3c-0.2,49.4-0.2,98.9,0,148.3
	c0,4.8-1.5,5.5-5.8,5.5c-54.1-0.1-108.2-0.1-162.3-0.1c-2,0-4,0.1-6,0.1c-1.4,0.7-2.6,0-3.7-0.8c-7.3-5.2-14.9-10.1-22-15.6
	c-1.4-1.1-5.1-2.6-0.8-5c2.8-0.7,5.6-0.5,8.5-0.5c43.5,0,86.9,0,130.4,0c1.7,0,3.3,0,5,0c9.2-0.1,10.8-1.6,10.8-10.8
	c0-32,0-63.9,0-95.9c0-8.8-1.3-10-10.2-10c-54.3,0-108.5,0-162.8,0c-8.2,0-8.3,0.2-10.2,8.2c-0.9,2-2.5,2-4.1,1.2
	c-2.6-1.3-5.6-1.9-7.9-4C569.9,403.5,569.9,394.8,569.9,386.1z"/>
<path class="st18" d="M580.7,509.4c-7.3-6.7-15.9-11.5-23.9-17.3c9.4-12.2,13.2-26.1,13-41.3c0-2.1,0.2-4.3,0.3-6.5
	c2.6-2.2,6-2.5,8.8-4.1c1.3-0.7,2.5-0.4,3.1,1.2c0.5,1.4,0.6,2.9,0.6,4.4c0.1,19.2,0.1,38.4,0,57.6
	C582.5,505.6,582.7,507.8,580.7,509.4z"/>
<path class="st19" d="M449.9,444.3c-8.5-3.1-13.1-9-12.7-16.4c0.4-8.1,5.3-13.4,14.7-15.8c0.5-0.5,0.8-0.4,0.9,0.3
	c0,10.5,0,21,0,31.5C452,445.1,450.9,444.6,449.9,444.3z"/>
<path class="st20" d="M580.7,440.2c-3.2,2.4-6.5,4.3-10.6,4.1c0-10.7-0.1-21.4-0.1-32.1c4.1,0,7.3,2.2,10.7,4.1
	C588.5,421.8,588.6,435.6,580.7,440.2z"/>
<path class="st21" d="M784.8,637.2c0,0.3,0,0.6,0,0.9c-4.8,0-9.7,0.3-14.5-0.1c-22.6-1.7-44.5,2.8-66.5,7.5
	c-28.9,6.3-57.9,12.3-86.9,18.5c-1-9-1.9-18-2.9-26.9C671,637.2,727.9,637.2,784.8,637.2z"/>
<path class="st22" d="M612.2,617c-0.7-4.3-1.5-8.5-1.2-12.9c2-1.7,4.1-0.7,6.2-0.2c10.3,2.1,20.5,4.1,30.7,6.4
	c6.3,1.4,12.5,1.9,18.7-0.2c1.1-0.4,2.2-0.6,3.4-0.1c0,4.2-4.4,4.4-6.2,7c-0.6,0.1-1.2,0.2-1.8,0.2c-8.3,3.5-17,1.9-25.6,1.6
	C628.3,618.5,620.3,617.1,612.2,617z"/>
<path class="st21" d="M236.9,699.1c0-20.6,0.1-41.3,0.1-61.9c55.3,0,110.7,0,166,0c2.2,0,4.3-0.1,6.5-0.1
	c-1.9,16.3-3.7,32.6-5.6,48.9c-0.9,7.4-1.9,14.8-2.9,22.1c-12.7,2-25.4,4.3-38.2,5.9c-16.9,2.1-34,3.7-51.1,3.1
	c-13.5-0.5-26.5-4.1-39.4-7.5C260.4,706.5,248.7,702.6,236.9,699.1z"/>
<path class="st22" d="M412.9,605.2c0.3,4-0.7,7.9-1.2,11.9c-11.4,1.2-22.7,2.3-34.2,2.1c-3.4,0-6.6-0.4-9.6-1.9
	c-0.6-0.1-1.2-0.2-1.9-0.3c-2.9-2.4-7.1-3.6-8.1-7.9c1.1-0.6,2.3-0.3,3.4,0.2c6.6,3,13.2,2.5,20,1c8.4-1.9,16.9-3.8,25.4-5.3
	C408.7,604.6,410.9,603.6,412.9,605.2z"/>
<path class="st21" d="M412.9,605.2c-12.1,2.5-24.3,5.1-36.4,7.6c-6.6,1.3-12.8-0.2-18.6-3.6c-8.2-5.9-11.1-14.1-10.1-23.9
	c1.5-7,5.3-12.2,11.2-16.3c5.4-3.8,11.1-7.1,15.9-11.7c6.1-3.1,11.3-7.6,16.9-11.4c15.7-10.9,31.4-21.9,47.1-32.8
	c0.6,2.3-1.3,3.5-2.5,4.8c-11,13.5-16.8,29.1-18.6,46.4C416.4,578,414.6,591.6,412.9,605.2z"/>
<path class="st21" d="M669.9,610c-9.2,5.5-18.6,2.5-28,0.5c-10.4-2.1-20.7-4.3-31.1-6.4c-1-9-2.3-18-3-27.1c-1.5-21-5.4-41-19-58
	c-2.4-3-5.7-5.1-7.2-8.7c1.3-1.6,3.1-1.2,4.5-0.5c8.3,4,16.1,8.8,22.5,15.5c9.1,7.2,18.7,13.6,28.3,20c5.7,4,11.4,8,17,12
	c4.4,3.2,8.7,6.7,13.3,9.5c7.5,4.5,12.3,10.8,14.6,19.1C682.2,596.1,678.8,604.4,669.9,610z"/>
<path class="st23" d="M902.1,591.5c0-7.5-0.1-13.7,0-19.9c0.1-4.4,2.1-5.3,8.6-4.7c4,0.4,4.6,3,3.9,6
	C912.9,580.1,908.4,585.6,902.1,591.5z"/>
<path class="st8" d="M879.8,530c-0.3,0.2-0.6,0.4-0.9,0.6c-0.3,0.5-0.7,1-1.1,1.4c-0.2,0.2-0.4,0.3-0.6,0.4
	c-0.3,0.2-0.6,0.4-0.9,0.6c-1.8,1.2-4.3,1.8-5.2,4c3.4-0.6,6.4-2.1,8.8-4.5c0.2-0.6,0.5-1.1,0.9-1.6
	C880.4,530.6,880.1,530.3,879.8,530z"/>
<path class="st24" d="M608.8,525.3c-5.2-3.5-10.4-7.1-15.7-10.5c-3.5-2.3-6.9-4.6-11.4-4.5c-0.4-0.3-0.7-0.6-1.1-0.9
	c0-23.1,0-46.1,0-69.2c6.2-8.6,6.2-13.7-0.1-23.9c0.6-11.2,0.6-11.2,11.8-11.2c54.5,0,108.9,0,163.4,0c9.9,0,11,1.2,11,11.2
	c0,32.8,0,65.6,0,98.4c0,8.2-2.1,10.4-10.2,10.4c-47.1,0-94.3,0-141.4,0C613.1,525.1,610.9,525.2,608.8,525.3z"/>
<path d="M490.9,649.1c-3-0.1-6-0.1-9-0.3c-5.7-0.4-7.8-2.4-7.8-8.1c-0.1-9-0.1-18,0-27c0-6,2-8.2,8.1-8.4c6.7-0.2,13.3-0.1,20-0.1
	c11.7,0,23.3-0.1,35,0c8,0,9.6,1.7,9.6,9.7c0,8.2,0,16.3,0,24.5c0,7.5-0.6,8.2-7.9,9.1c-2.3,0.3-4.6,0.3-7,0.5l-0.4-0.1
	c-13.4-0.6-26.8-0.8-40.2,0.1L490.9,649.1z"/>
<path class="st25" d="M491.3,649.1c2.9-1.6,6.1-0.7,9.2-0.7c10.3,0.2,20.7-0.9,31,0.6C518.1,649,504.7,649,491.3,649.1z"/>
<path class="st26" d="M361.3,479.1c16,0,32,0,48,0.1c1.5,0,4.3-1.2,4.3,1.7c0,2.7-2.5,2.1-4.3,2.1c-32.5,0-64.9,0-97.4,0
	c-1.5,0-3.7,0.7-3.8-1.9c0-2.7,2.3-1.9,3.7-1.9C328.3,479.1,344.8,479.1,361.3,479.1z"/>
<path class="st27" d="M349.1,439.1c16.1,0,32.3,0,48.4,0c1.4,0,3.9-0.9,4,1.6c0.1,2.7-2.4,2.2-4.1,2.2c-32.5,0-64.9,0-97.4,0
	c-1.5,0-3.8,0.7-3.9-1.8c-0.1-3.1,2.5-2,4.1-2C316.5,439.1,332.8,439.1,349.1,439.1z"/>
<path class="st28" d="M311.2,455.1c10,0,20-0.1,29.9,0.1c1.6,0,4.2-1.2,4.4,1.6c0.1,2.7-2.4,2.2-4.2,2.2c-20.3,0-40.6,0-60.9,0
	c-1.7,0-4.2,0.5-4.2-2.2c0.1-2.6,2.5-1.6,3.9-1.6C290.6,455.1,300.9,455.1,311.2,455.1z"/>
<path class="st27" d="M311.3,503.1c10.1,0,20.3,0,30.4,0c1.4,0,3.8-1,3.9,1.7c0.1,2.4-2.1,2.2-3.7,2.2c-20.6,0-41.3,0-61.9,0
	c-1.7,0-3.7,0.2-3.6-2.3c0.1-2.3,2.2-1.6,3.5-1.6C290.3,503.1,300.8,503.1,311.3,503.1z"/>
<path class="st27" d="M318.4,495.1c10.2,0,20.3,0,30.5,0c1.5,0,3.7-0.8,3.8,1.8c0.1,2.7-2.2,2-3.7,2c-20.5,0-41,0-61.5,0
	c-1.5,0-3.8,0.5-3.6-2.1c0.2-2.6,2.5-1.7,3.9-1.7C298.1,495.1,308.3,495.1,318.4,495.1z"/>
<path class="st28" d="M342.1,435c-10,0-20,0-30,0c-1.6,0-4.2,0.9-4-2.1c0.1-2.6,2.5-1.7,4-1.7c20.3-0.1,40.6-0.1,60.9,0
	c1.5,0,3.8-0.8,3.8,1.8c0,2.6-2.2,2-3.7,2C362.8,435,352.4,435,342.1,435z"/>
<path class="st28" d="M330,522.2c-10,0-20,0-30,0c-1.5,0-3.8,0.9-3.9-1.7c-0.1-3,2.4-2.1,4.1-2.1c20.2-0.1,40.3-0.1,60.5,0
	c1.6,0,4.2-1,4.2,2c-0.1,2.9-2.7,1.8-4.3,1.8C350.3,522.2,340.2,522.2,330,522.2z"/>
<path class="st27" d="M317.9,463.1c10.3,0,20.7,0,31,0c1.5,0,3.7-0.9,3.9,1.8c0.1,2.7-2.2,2-3.7,2c-20.5,0-41,0-61.5,0
	c-1.5,0-3.8,0.5-3.6-2.1c0.2-2.6,2.5-1.7,3.9-1.7C297.9,463.1,307.9,463.1,317.9,463.1z"/>
<path class="st28" d="M317.9,514.2c-10,0-20,0-30,0c-1.5,0-3.8,0.8-3.9-1.7c-0.1-3,2.5-2.1,4.1-2.1c20.1-0.1,40.3-0.1,60.4,0
	c1.6,0,4.3-0.9,4.1,2c-0.1,2.9-2.8,1.8-4.3,1.8C338.2,514.2,328.1,514.2,317.9,514.2z"/>
<path class="st26" d="M330.4,471.1c10,0,20-0.1,30,0.1c1.6,0,4.2-1.2,4.3,1.7c0.2,3-2.5,2-4.1,2c-20.2,0.1-40.3,0.1-60.5,0
	c-1.6,0-4.3,0.9-4.1-2.1c0.2-2.9,2.8-1.7,4.4-1.7C310.4,471.1,320.4,471.1,330.4,471.1z"/>
<path class="st28" d="M330.4,423.1c10,0,20-0.1,30,0.1c1.6,0,4.2-1.1,4.4,1.7c0.2,3-2.5,2.1-4.1,2.1c-20.1,0.1-40.3,0.1-60.4,0
	c-1.6,0-4.3,0.9-4.1-2c0.1-2.9,2.8-1.7,4.4-1.8C310.4,423,320.4,423.1,330.4,423.1z"/>
<path class="st26" d="M330.1,491c-10,0-20,0-30,0c-1.6,0-4.2,0.9-4-2.2c0.2-2.6,2.5-1.7,4-1.7c20.3-0.1,40.7-0.1,61,0
	c1.5,0,3.7-0.8,3.8,1.9c0,2.7-2.2,2-3.7,2C350.7,491.1,340.4,491,330.1,491z"/>
<path class="st29" d="M310.8,410.3c-10.1,0-20.3,0-30.4,0c-1.5,0-4,0.8-3.9-1.6c0.1-2.4,2.6-1.5,4-1.5c20.3-0.1,40.5-0.1,60.8,0
	c1.5,0,4-0.9,4.1,1.4c0.1,2.9-2.7,1.7-4.2,1.8C331.1,410.4,320.9,410.3,310.8,410.3z"/>
<path class="st29" d="M318.4,415.1c10.2,0,20.3,0,30.5,0c1.3,0,3.5-0.8,3.7,1.4c0.2,2.7-2.3,1.8-3.7,1.8c-20.3,0.1-40.7,0.1-61,0
	c-1.3,0-3.5,0.7-3.7-1.4c-0.2-2.7,2.3-1.7,3.7-1.8C298.1,415,308.3,415.1,318.4,415.1z"/>
<path class="st28" d="M306.3,447.1c6.3,0,12.7,0,19,0c1.3,0,3.4-0.6,3.3,1.8c-0.1,2.1-1.9,2-3.4,2c-12.7,0-25.3,0-38,0
	c-1.4,0-3.3,0.3-3.2-2c0.1-2.3,2-1.8,3.4-1.8C293.7,447.1,300,447.1,306.3,447.1z"/>
<path class="st30" d="M293.7,479.1c2.6,0,5.3,0,7.9,0c1,0,2,0.3,2.1,1.6c0.1,1.4-0.6,2.2-2,2.2c-5.5,0-10.9,0-16.4,0
	c-1.3,0-2.3-0.3-2.3-1.9c0-1.6,1-1.9,2.2-1.9C288.1,479.1,290.9,479.1,293.7,479.1z"/>
<path class="st31" d="M281.2,475c-2.6,0-5.3,0-7.9,0c-1.3,0-2.2-0.4-2.3-1.9c0-1.6,1-1.9,2.2-1.9c5.4,0,10.9,0,16.3,0
	c1,0,2,0.2,2.1,1.5c0,1.4-0.7,2.2-2.1,2.2C286.8,475,284,474.9,281.2,475C281.2,474.9,281.2,475,281.2,475z"/>
<path class="st32" d="M269.2,450.9c-2.7,0-5.3,0-8,0c-1.3,0-2.3-0.4-2.3-2c0-1.6,1.1-1.9,2.3-1.9c5.3,0,10.6,0,16,0
	c1.2,0,2.4,0.2,2.3,1.8c-0.1,1.5-1.1,2-2.4,2C274.5,450.9,271.9,450.9,269.2,450.9z"/>
<path class="st33" d="M269.5,463.1c2.5,0,5,0,7.5,0c1.2,0,2.5-0.1,2.5,1.6c0,1.4-0.8,2.2-2.2,2.2c-5.5,0-11,0-16.5,0
	c-1.4,0-2.1-0.8-2-2.3c0.1-1.3,1.1-1.6,2.1-1.6C263.9,463.1,266.7,463.1,269.5,463.1C269.5,463.1,269.5,463.1,269.5,463.1z"/>
<path class="st32" d="M281.6,439.1c2.5,0,5,0,7.5,0c1.2,0,2.5-0.1,2.5,1.6c0,1.5-0.9,2.1-2.2,2.2c-5.5,0.1-11,0-16.5,0
	c-1.1,0-1.9-0.5-2-1.8c-0.1-1.6,0.8-2,2.1-2C276,439.1,278.8,439.1,281.6,439.1C281.6,439.1,281.6,439.1,281.6,439.1z"/>
<path class="st34" d="M281.2,426.9c-2.7,0-5.3,0-8,0c-1.3,0-2.3-0.4-2.2-2c0-1.6,1.1-1.8,2.4-1.8c5.3,0,10.7,0,16,0
	c1.2,0,2.4,0.2,2.3,1.9c-0.1,1.5-1.2,1.9-2.4,1.9C286.5,426.9,283.9,426.9,281.2,426.9C281.2,426.9,281.2,426.9,281.2,426.9z"/>
<path class="st32" d="M268.9,514.2c-2.5,0-5,0-7.5,0c-1.2,0-2.4-0.1-2.5-1.7c-0.1-1.5,0.8-2.1,2.1-2.1c5.3,0,10.6,0,16,0
	c1.6,0,2.7,0.7,2.5,2.4c-0.2,1.6-1.5,1.5-2.7,1.5C274.2,514.2,271.5,514.2,268.9,514.2z"/>
<path class="st35" d="M281.1,522.2c-2.7,0-5.3,0-8,0c-1,0-2-0.2-2.1-1.6c-0.1-1.4,0.6-2.2,2-2.2c5.5,0,11,0,16.5,0
	c1.3,0,2.2,0.7,2.2,2.2c-0.1,1.7-1.4,1.6-2.6,1.6C286.4,522.3,283.7,522.2,281.1,522.2C281.1,522.2,281.1,522.2,281.1,522.2z"/>
<path class="st36" d="M281.3,487.1c2.8,0,5.6,0,8.4,0c1.1,0,2,0.4,1.9,1.7c0,1.1-0.6,2-1.7,2c-5.8,0.1-11.5,0.1-17.3,0.1
	c-1.2,0-1.6-0.9-1.6-2c0-1.3,0.8-1.7,1.9-1.7C275.7,487.1,278.5,487.1,281.3,487.1z"/>
<path class="st37" d="M269.1,495.2c2.8,0,5.6,0,8.4,0c1.2,0,1.9,0.6,1.9,1.8c0,1.2-0.7,1.9-1.8,1.9c-5.6,0.1-11.2,0-16.9,0
	c-1.2,0-1.8-0.7-1.8-1.8c-0.1-1.6,0.9-1.9,2.2-1.9C263.8,495.1,266.5,495.2,269.1,495.2C269.1,495.2,269.1,495.2,269.1,495.2z"/>
<path class="st38" d="M293.7,431.1c2.5,0,5,0,7.5,0c1.1,0,2.5-0.1,2.6,1.6c0.1,1.5-0.8,2.2-2.1,2.2c-5.5,0.1-11,0.1-16.4,0
	c-1.3,0-2.2-0.8-2.1-2.2c0.1-1.4,1.1-1.5,2.1-1.5C288,431.1,290.9,431.1,293.7,431.1z"/>
<path class="st38" d="M262.2,455.1c2.3,0,4.7,0,7,0c1.3,0,2.8,0,2.7,2c-0.1,1.6-1.1,1.9-2.4,1.9c-5.2,0-10.3,0-15.5,0
	c-1.3,0-2.3-0.5-2.2-2c0-1.6,1.2-1.8,2.4-1.8C256.9,455.1,259.6,455.1,262.2,455.1z"/>
<path class="st37" d="M261.6,507c-2.5,0-4.9,0-7.4,0c-1.2,0-2.3-0.3-2.4-1.9c-0.1-1.6,0.9-2,2.2-2c5.3,0,10.6,0,15.8,0
	c1.4,0,2.2,0.5,2.1,2.1c-0.1,1.6-1.2,1.8-2.4,1.8C266.9,507,264.2,507,261.6,507z"/>
<path class="st21" d="M268.8,415.1c2.7,0,5.3,0,8,0c1,0,2.1,0.1,2.2,1.4c0.1,1.3-0.7,1.8-1.8,1.8c-5.5,0-10.9,0-16.4,0
	c-0.9,0-1.6-0.4-1.7-1.4c-0.1-1.3,0.7-1.8,1.8-1.8C263.5,415.1,266.2,415.1,268.8,415.1z"/>
<path class="st21" d="M262.1,407.1c2.7,0,5.3,0,8,0c0.9,0,1.6,0.3,1.7,1.3c0.1,1.3-0.6,1.9-1.7,1.9c-5.5,0-10.9,0-16.4,0
	c-1.1,0-1.9-0.6-1.8-1.8c0.1-1,0.9-1.3,1.7-1.3C256.5,407.1,259.3,407.1,262.1,407.1z"/>
<path class="st39" d="M236.9,429.2c1.8,0.3,4.5-0.7,4.6,2.3c0.1,2.6-2.4,1.8-3.9,1.7c-1.7-0.1-4.5,1.3-4.6-2
	C233,428.6,235.4,429.5,236.9,429.2z"/>
<path class="st39" d="M237,498c-1.6-0.3-4.2,0.7-3.9-2.3c0.3-2.7,2.9-1.6,4.5-1.6c1.4-0.1,3.9-0.9,4,1.6
	C241.6,498.7,238.8,497.8,237,498z"/>
<path class="st40" d="M237.2,474.2c-1.7-0.4-4,0.7-4.1-1.9c-0.1-3,2.4-2.1,4-2.1c1.5,0,3.7-0.8,3.9,1.7
	C241.1,475.1,238.4,473.6,237.2,474.2z"/>
<path class="st41" d="M237.1,466.2c-1.5-0.4-4.1,0.9-4.1-2c0-2.6,2.2-1.9,3.7-1.9c1.6,0.1,4.1-0.9,4.1,2
	C241,466.8,238.6,465.9,237.1,466.2z"/>
<path class="st40" d="M236.9,449.2c-1.4-0.4-3.7,0.8-3.8-1.8c-0.1-3,2.4-2,4-2.1c1.5,0,3.7-0.7,3.8,1.8
	C241,450,238.4,448.8,236.9,449.2z"/>
<path class="st41" d="M237.1,407.1c1.5,0.3,3.8-0.7,3.8,1.9c0,2.9-2.5,2-4.1,2c-1.5,0-3.7,0.7-3.7-1.9
	C233.1,406.1,235.6,407.5,237.1,407.1z"/>
<path class="st40" d="M236.6,508.1c-1.6-0.2-3.9,0.5-3.5-2.2c0.3-2.8,2.8-1.6,4.4-1.7c1.5-0.1,3.8-0.5,3.5,2.1
	C240.6,509.1,238.1,507.7,236.6,508.1z"/>
<path class="st41" d="M236.9,441.2c-1.4-0.4-3.8,0.8-3.9-1.8c-0.1-3,2.4-2.1,4-2.1c1.5,0,3.8-0.7,3.9,1.8
	C241.1,442.1,238.4,440.8,236.9,441.2z"/>
<path class="st41" d="M236.7,490.1c-1.6-0.2-3.8,0.4-3.6-2.2c0.3-2.9,2.8-1.6,4.3-1.7c1.5-0.1,3.8-0.6,3.5,2
	C240.7,491,238.2,489.7,236.7,490.1z"/>
<path class="st41" d="M236.9,478.1c1.5,0.4,4.1-0.9,4.1,2.1c0,2.5-2.3,1.9-3.8,1.9c-1.6-0.1-4.1,0.9-4.1-2
	C233.1,477.4,235.4,478.4,236.9,478.1z"/>
<path class="st29" d="M237,514.4c-1.4-0.4-3.8,0.8-3.7-1.8c0.1-2.2,2.3-1.4,3.6-1.4c1.4,0,3.9-0.9,4,1.4
	C240.9,515.1,238.4,514,237,514.4z"/>
<path class="st29" d="M237,417.4c-1.6-0.4-3.8,0.6-3.8-1.6c0-2.6,2.4-1.6,3.8-1.7c1.4,0,3.9-0.8,3.8,1.7
	C240.6,418.2,238.1,416.7,237,417.4z"/>
<path class="st29" d="M236.8,459.3c-1.3-0.3-3.5,0.7-3.6-1.5c0-2.6,2.4-1.7,3.8-1.7c1.4,0,3.9-0.9,3.8,1.7
	C240.6,460.1,238.2,458.9,236.8,459.3z"/>
<path class="st29" d="M236.8,519c1.4,0.4,3.9-0.8,4,1.5c0.1,2.5-2.4,1.6-3.8,1.7c-1.4,0-3.8,0.9-3.8-1.7
	C233.3,518.3,235.5,519.3,236.8,519z"/>
<path class="st29" d="M236.6,425.3c-1.4-0.3-3.6,0.6-3.4-1.7c0.2-2.4,2.5-1.4,4-1.5c1.3-0.1,3.6-0.7,3.6,1.4
	C240.7,426.4,238,424.7,236.6,425.3z"/>
<path class="st42" d="M718.3,492.2c-7.8,0-15.6-0.1-23.4,0c-2.6,0-4-0.5-4-3.5c0-3,1.4-3.5,4-3.5c15.8,0.1,31.6,0.1,47.4,0
	c2.4,0,3.7,0.5,3.7,3.3c0,2.8-0.9,3.8-3.7,3.8C734.2,492.1,726.3,492.2,718.3,492.2z"/>
<path class="st43" d="M668.7,476.3c-6.2,0-12.3,0-18.5,0c-2.3,0-4.3,0.1-4.3-3.2c0.1-2.8,1.3-3.8,4-3.8c12.5,0,25,0.1,37.5,0
	c2.5,0,3.6,0.7,3.7,3.4c0,2.9-1.1,3.8-3.9,3.7C681,476.2,674.9,476.3,668.7,476.3z"/>
<path class="st42" d="M661.8,492.2c-4.2,0-8.3-0.1-12.5,0c-2.7,0.1-3.4-1.2-3.4-3.6c0-2.6,1-3.5,3.6-3.4c8.3,0.1,16.7,0.1,25,0
	c2.7,0,3.4,1.2,3.4,3.6c0,2.6-1,3.5-3.6,3.4C670.1,492.1,666,492.2,661.8,492.2z"/>
<path class="st44" d="M661.7,461.1c-4.2,0-8.3-0.1-12.5,0c-2.8,0.1-3.3-1.4-3.2-3.7c0-2.3,0.7-3.3,3.2-3.3c8.6,0.1,17.3,0.1,25.9,0
	c2.6,0,3,1.3,3,3.5c0,2.1-0.3,3.6-2.9,3.6C670.6,461,666.1,461.1,661.7,461.1z"/>
<path class="st44" d="M691.6,508.1c-3.3,0-6.7-0.1-10,0c-2.7,0.1-3.9-0.8-3.9-3.7c0-2.7,1.2-3.4,3.6-3.4c7,0.1,14,0.1,21,0
	c2.5,0,3.5,0.8,3.6,3.4c0.1,2.9-1.2,3.8-3.9,3.6C698.6,508,695.1,508.1,691.6,508.1z"/>
<path class="st45" d="M704.4,461.1c-3.2,0-6.3-0.1-9.5,0c-2.5,0.1-4.1-0.3-4.1-3.4c0-2.9,1.1-3.7,3.9-3.7c6.8,0.1,13.6,0.1,20.4,0
	c2.4,0,3.8,0.5,3.7,3.3c-0.1,2.8-1.3,3.9-4,3.8C711.4,461,707.9,461.1,704.4,461.1z"/>
<path class="st46" d="M732.5,508.1c-3.3,0-6.7-0.1-10,0c-2.4,0.1-3.7-0.5-3.8-3.3c0-2.8,0.9-3.8,3.8-3.8c6.7,0.1,13.3,0.1,20,0
	c2.6,0,3.5,1,3.5,3.5c0,2.5-0.8,3.6-3.5,3.5C739.1,508,735.8,508.1,732.5,508.1z"/>
<path class="st43" d="M719.1,476.3c-3.3,0-6.7-0.1-10,0c-2.8,0.1-3.3-1.3-3.3-3.7c0-2.2,0.6-3.4,3.1-3.4c6.8,0.1,13.6,0.1,20.5,0
	c2.6,0,3.4,1.4,3.4,3.8c0.1,2.8-1.4,3.3-3.8,3.2C725.8,476.2,722.4,476.3,719.1,476.3z"/>
<path class="st47" d="M655.2,501.1c2,0,4,0.1,6,0c2.8-0.2,3.8,0.9,3.8,3.7c0,2.7-1.2,3.4-3.7,3.3c-3.8-0.1-7.6-0.1-11.4,0
	c-2.7,0.1-3.8-1.1-3.9-3.9c0-2.9,1.5-3.3,3.8-3.2C651.5,501.1,653.4,501.1,655.2,501.1z"/>
<path class="st48" d="M612.4,476.3c-1,0-2-0.1-3,0c-2.5,0.2-3.6-0.8-3.6-3.4c0-2.4,0.6-3.8,3.3-3.7c2,0.1,4,0.1,6,0
	c2.9-0.1,3.7,1.4,3.7,4c0,3-1.8,3.1-4,3C614,476.2,613.2,476.3,612.4,476.3z"/>
<path class="st17" d="M611.2,461.1c-2-0.5-5.4,1.4-5.4-3.2c0-2.7,0.8-4,3.6-3.8c1.5,0.1,3,0.1,4.4,0c2.8-0.2,4.3,0.5,4.2,3.7
	c-0.1,3.2-1.8,3.4-4.2,3.3C613.1,461.1,612.3,461.1,611.2,461.1z"/>
<path class="st46" d="M611.8,508.2c-2.3-0.6-5.9,1.6-6-3.5c-0.1-5.3,3.8-3.5,6.3-3.5c2.4,0,5.9-1.7,6,3.3
	C618.2,509.8,614.2,507.5,611.8,508.2z"/>
<path class="st42" d="M611.8,492.2c-2.3-0.6-6,1.5-6-3.5c0-5.4,3.8-3.4,6.3-3.5c2.4,0,5.9-1.7,6,3.3
	C618.1,494,614.2,491.5,611.8,492.2z"/>
<path class="st49" d="M644.4,418.1c2.4,0.3,5.5-1.1,5.5,3.5c0,4.5-2.9,3.5-5.4,3.5c-2.6,0-5.5,0.7-5.6-3.6
	C638.8,416.9,642.1,418.3,644.4,418.1z"/>
<path class="st17" d="M611.4,425c-3.1,0.1-5.6,0.6-5.6-3.5c0-4.1,2.6-3.4,5-3.5c2.7,0,5.4-0.6,5.2,3.8
	C615.9,426.2,612.9,424.7,611.4,425z"/>
<path class="st50" d="M628.7,425c-3.6,0.2-5.9,0.4-5.9-3.5c0-4.5,3-3.3,5.4-3.5c2.5-0.1,4.9-0.4,4.8,3.5
	C633,426.1,630,424.9,628.7,425z"/>
<text transform="matrix(0.8973 0 0 1 852.0085 589.9)" class="st3 st51 st52">Code</text>
</svg>
